<mxfile host="app.diagrams.net" modified="2024-03-05T13:47:44.126Z" agent="Mozilla/5.0 (Macintosh; Intel Mac OS X 10_15_7) AppleWebKit/605.1.15 (KHTML, like Gecko) Version/16.4 Safari/605.1.15" version="24.0.0" etag="lHsPj8tltup-gKtt2Bgu" type="github">
  <diagram name="第 1 页" id="GS8Echypi8_ovN5q6XIa">
    <mxGraphModel>
      <root>
        <mxCell id="0" />
        <mxCell id="1" parent="0" />
      </root>
    </mxGraphModel>
  </diagram>
</mxfile>
